<svg width="31" height="31" viewBox="0 0 31 31" fill="none" xmlns="http://www.w3.org/2000/svg">
<g id="github_svg">
<g id="Group_8">
<circle id="Ellipse_2" cx="15.3788" cy="15.0758" r="15" fill="white"/>
</g>
<path id="Vector" d="M15.3984 15.0101H15.3597C13.8244 15.0101 12.4722 14.6195 11.6717 15.3555C11.4542 15.5488 11.2809 15.7867 11.1637 16.0529C11.0465 16.3192 10.988 16.6076 10.9923 16.8985C10.9923 19.2859 12.904 19.5798 15.361 19.5798H15.3984C17.854 19.5798 19.767 19.2846 19.767 16.8985C19.767 16.3275 19.5659 15.7951 19.0877 15.3555C18.2859 14.6195 16.9336 15.0101 15.3984 15.0101ZM13.3075 18.2727C12.8396 18.2727 12.4619 17.7467 12.4619 17.0996C12.4619 16.4525 12.8396 15.9292 13.3075 15.9292C13.7754 15.9292 14.1544 16.4525 14.1544 17.0996C14.1557 17.7467 13.7767 18.2727 13.3075 18.2727ZM17.4493 18.2727C16.9813 18.2727 16.6023 17.7467 16.6023 17.0996C16.6023 16.4525 16.9813 15.9292 17.4493 15.9292C17.9159 15.9292 18.2949 16.4525 18.2949 17.0996C18.2962 17.7467 17.9172 18.2727 17.4493 18.2727ZM15.379 2.70081C8.54442 2.70081 3.00403 8.2412 3.00403 15.0758C3.00403 21.9104 8.54442 27.4508 15.379 27.4508C22.2136 27.4508 27.754 21.9104 27.754 15.0758C27.754 8.2412 22.2136 2.70081 15.379 2.70081ZM16.5082 20.1534C16.2865 20.1534 15.8457 20.1534 15.379 20.156C14.9124 20.1534 14.4715 20.1534 14.2498 20.1534C13.2701 20.1534 9.38747 20.0774 9.38747 15.3981C9.38747 14.323 9.75614 13.5354 10.3607 12.878C10.2653 12.6408 10.2602 11.2898 10.7732 9.99561C10.7732 9.99561 11.954 10.1245 13.7393 11.3504C14.1119 11.246 14.7461 11.1931 15.379 11.1931C16.012 11.1931 16.6449 11.246 17.02 11.3491C18.8054 10.1232 19.9861 9.99432 19.9861 9.99432C20.4992 11.2885 20.4953 12.6408 20.3986 12.8767C21.0032 13.5341 21.3719 14.3217 21.3719 15.3968C21.3706 20.0787 17.4879 20.1534 16.5082 20.1534Z" fill="black"/>
</g>
</svg>
