<svg width="31" height="31" viewBox="0 0 31 31" fill="none" xmlns="http://www.w3.org/2000/svg">
<circle cx="15.2273" cy="15.0758" r="15" fill="white"/>
<path d="M15.2275 2.70081C8.39293 2.70081 2.85254 8.2412 2.85254 15.0758C2.85254 21.9104 8.39293 27.4508 15.2275 27.4508C22.0621 27.4508 27.6025 21.9104 27.6025 15.0758C27.6025 8.2412 22.0621 2.70081 15.2275 2.70081ZM12.1982 20.205H9.6923V12.1406H12.1982V20.205ZM10.9298 11.1506C10.1383 11.1506 9.62656 10.5899 9.62656 9.89635C9.62656 9.18866 10.1538 8.64467 10.962 8.64467C11.7703 8.64467 12.2653 9.18866 12.2807 9.89635C12.2807 10.5899 11.7703 11.1506 10.9298 11.1506ZM21.3506 20.205H18.8446V15.7358C18.8446 14.6955 18.4811 13.9891 17.5749 13.9891C16.8827 13.9891 16.4715 14.4674 16.2897 14.9276C16.2227 15.0913 16.2059 15.3233 16.2059 15.554V20.2037H13.6987V14.7123C13.6987 13.7055 13.6665 12.8638 13.633 12.1393H15.8102L15.9249 13.2595H15.9752C16.3052 12.7336 17.1134 11.9576 18.4657 11.9576C20.1144 11.9576 21.3506 13.0623 21.3506 15.4367V20.205Z" fill="black"/>
</svg>
