<svg width="31" height="31" viewBox="0 0 31 31" fill="none" xmlns="http://www.w3.org/2000/svg">
<circle cx="15.0758" cy="15.0757" r="15" fill="white"/>
<path d="M17.076 27.5607C23.0898 26.6557 27.701 21.4669 27.701 15.2007C27.701 8.29693 22.1048 2.70068 15.201 2.70068C8.2973 2.70068 2.70105 8.29693 2.70105 15.2007C2.70105 21.4669 7.3123 26.6569 13.326 27.5607V18.9507H11.451C10.9538 18.9507 10.4769 18.7531 10.1252 18.4015C9.77359 18.0499 9.57605 17.573 9.57605 17.0757C9.57605 16.5784 9.77359 16.1015 10.1252 15.7499C10.4769 15.3982 10.9538 15.2007 11.451 15.2007H13.326V12.7007C13.326 11.5404 13.787 10.4276 14.6075 9.60709C15.4279 8.78662 16.5407 8.32568 17.701 8.32568H18.326C18.8233 8.32568 19.3002 8.52323 19.6519 8.87486C20.0035 9.22649 20.201 9.7034 20.201 10.2007C20.201 10.698 20.0035 11.1749 19.6519 11.5265C19.3002 11.8781 18.8233 12.0757 18.326 12.0757H17.701C17.5353 12.0757 17.3763 12.1415 17.2591 12.2587C17.1419 12.376 17.076 12.5349 17.076 12.7007V15.2007H18.951C19.4483 15.2007 19.9252 15.3982 20.2769 15.7499C20.6285 16.1015 20.826 16.5784 20.826 17.0757C20.826 17.573 20.6285 18.0499 20.2769 18.4015C19.9252 18.7531 19.4483 18.9507 18.951 18.9507H17.076V27.5607Z" fill="black"/>
</svg>
